<?xml version="1.0" standalone="no"?>
<!DOCTYPE svg PUBLIC "-//W3C//DTD SVG 20010904//EN"
 "http://www.w3.org/TR/2001/REC-SVG-20010904/DTD/svg10.dtd">
<svg version="1.0" xmlns="http://www.w3.org/2000/svg"
 width="353.000000pt" height="353.000000pt" viewBox="0 0 353.000000 353.000000"
 preserveAspectRatio="xMidYMid meet">
<metadata>
Created by potrace 1.11, written by Peter Selinger 2001-2013
</metadata>
<g transform="translate(0.000000,353.000000) scale(0.100000,-0.100000)"
fill="#000000" stroke="none">
<path d="M1525 3514 c-555 -83 -1028 -405 -1296 -881 -45 -81 -135 -281 -144
-321 -2 -9 -15 -60 -29 -113 -45 -174 -55 -266 -50 -474 3 -154 14 -247 48
-400 17 -76 72 -221 125 -330 220 -456 629 -797 1116 -930 66 -18 145 -36 175
-40 30 -4 64 -9 75 -12 11 -3 94 -6 185 -8 203 -4 285 5 467 50 469 114 895
447 1120 873 83 157 157 358 177 482 3 19 8 49 12 65 15 77 21 182 19 320 -3
183 -8 227 -45 380 -75 315 -224 585 -449 818 -218 226 -461 369 -806 477 -32
10 -119 28 -170 36 -16 2 -41 7 -55 10 -54 12 -386 11 -475 -2z"/>
</g>
</svg>
